<?xml version="1.0" encoding="iso-8859-1"?>
<!-- Generator: Adobe Illustrator 17.0.0, SVG Export Plug-In . SVG Version: 6.00 Build 0)  -->
<!DOCTYPE svg PUBLIC "-//W3C//DTD SVG 1.1//EN" "http://www.w3.org/Graphics/SVG/1.1/DTD/svg11.dtd">
<svg version="1.1" id="Layer_1" xmlns="http://www.w3.org/2000/svg" xmlns:xlink="http://www.w3.org/1999/xlink" x="0px" y="0px"
	 width="133.667px" height="126px" viewBox="-12.667 0 133.667 126" style="enable-background:new -12.667 0 133.667 126;"
	 xml:space="preserve">
<path style="opacity:0.15;fill:#FFFFFF;enable-background:new    ;" d="M71.408,74.757v0.074l0,0v0.19
	c0.018,10.589-4.167,20.753-11.637,28.258c-15.343,15.502-40.348,15.63-55.85,0.287c-0.096-0.095-0.192-0.191-0.287-0.287
	c-15.505-15.652-15.505-40.873,0-56.525c7.416-7.496,17.524-11.711,28.068-11.703v0.025l14.22,0.017
	c3.259,0,5.901,2.642,5.901,5.901c0,3.259-2.642,5.901-5.901,5.901l0,0L31.703,46.87v0.025c-7.419-0.003-14.531,2.963-19.749,8.236
	c-10.916,11.01-10.916,28.761,0,39.771c10.792,10.91,28.385,11.005,39.295,0.212c0.071-0.07,0.142-0.141,0.212-0.212
	c5.251-5.283,8.193-12.433,8.179-19.882v-1.073l-0.008-0.124c-0.01-0.193-0.007-0.385,0.008-0.578v-56.3
	c0-3.25,2.635-5.884,5.884-5.884c3.25,0,5.884,2.634,5.884,5.884V74.757L71.408,74.757L71.408,74.757z"/>
<path style="opacity:0.15;fill:#FFFFFF;enable-background:new    ;" d="M83.623,98.344c4.597-0.03,8.347,3.673,8.377,8.269
	c0.03,4.597-3.673,8.347-8.269,8.377c-4.597,0.03-8.347-3.673-8.377-8.27c0-0.016,0-0.033,0-0.049
	c-0.018-4.581,3.682-8.309,8.263-8.327C83.618,98.344,83.621,98.344,83.623,98.344z"/>
</svg>
