<?xml version="1.0" encoding="utf-8"?>
<!-- Generator: Adobe Illustrator 17.0.0, SVG Export Plug-In . SVG Version: 6.00 Build 0)  -->
<!DOCTYPE svg PUBLIC "-//W3C//DTD SVG 1.1//EN" "http://www.w3.org/Graphics/SVG/1.1/DTD/svg11.dtd">
<svg version="1.1" id="Capa_1" xmlns="http://www.w3.org/2000/svg" xmlns:xlink="http://www.w3.org/1999/xlink" x="0px" y="0px"
	 width="96.124px" height="96.123px" viewBox="0 0 96.124 96.123" enable-background="new 0 0 96.124 96.123" xml:space="preserve">
<g>
	<path fill="#36373B" d="M67.819,8.558L57.57,8.541c-11.515,0-18.957,7.635-18.957,19.452v8.969H28.307
		c-0.891,0-1.612,0.722-1.612,1.612v12.994c0,0.891,0.722,1.612,1.612,1.612h10.306v32.79c0,0.891,0.721,1.612,1.612,1.612H53.67
		c0.891,0,1.612-0.722,1.612-1.612V53.181h12.05c0.891,0,1.612-0.721,1.612-1.612l0.005-12.994c0-0.428-0.17-0.837-0.472-1.14
		c-0.302-0.303-0.713-0.473-1.141-0.473H55.282v-7.603c0-3.654,0.871-5.509,5.631-5.509l6.905-0.002c0.89,0,1.611-0.722,1.611-1.612
		V10.17C69.429,9.281,68.708,8.56,67.819,8.558z"/>
</g>
</svg>
