<?xml version="1.0" encoding="utf-8"?>
<!-- Generator: Adobe Illustrator 17.0.0, SVG Export Plug-In . SVG Version: 6.00 Build 0)  -->
<!DOCTYPE svg PUBLIC "-//W3C//DTD SVG 1.1//EN" "http://www.w3.org/Graphics/SVG/1.1/DTD/svg11.dtd">
<svg version="1.1" id="Layer_1" xmlns="http://www.w3.org/2000/svg" xmlns:xlink="http://www.w3.org/1999/xlink" x="0px" y="0px"
	 width="50px" height="50px" viewBox="0 0 50 50" enable-background="new 0 0 50 50" xml:space="preserve">
<path fill="#36373B" d="M7.414,34.586c0,1.092-0.053,1.351-0.626,2.026l-4.833,5.872v0.779h13.719v-0.779l-4.831-5.872
	c-0.572-0.675-0.677-0.988-0.677-2.026V16.974l12.053,26.289h1.405l10.339-26.289v20.939c0,0.57,0,0.673-0.364,1.039l-3.635,3.533
	v0.779h18.078v-0.779l-3.584-3.533c-0.362-0.366-0.413-0.468-0.413-1.039V12.089c0-0.572,0.051-0.677,0.413-1.039l3.586-3.535V6.737
	h-12.73l-9.092,22.705L15.987,6.737H2.63v0.779l4.21,5.193c0.47,0.574,0.572,0.728,0.572,1.511v20.366L7.414,34.586z"/>
</svg>
