<?xml version="1.0" encoding="utf-8"?>
<!-- Generator: Adobe Illustrator 16.0.0, SVG Export Plug-In . SVG Version: 6.00 Build 0)  -->
<!DOCTYPE svg PUBLIC "-//W3C//DTD SVG 1.1//EN" "http://www.w3.org/Graphics/SVG/1.1/DTD/svg11.dtd">
<svg version="1.1" id="Layer_1" xmlns="http://www.w3.org/2000/svg" xmlns:xlink="http://www.w3.org/1999/xlink" x="0px" y="0px"
	 width="36px" height="36px" viewBox="0 0 36 36" enable-background="new 0 0 36 36" xml:space="preserve">
<g id="XMLID_798_">
	<path id="XMLID_799_" fill="#36373B" d="M26.805,5.975c-2.082-1.999-4.965-3.1-8.113-3.1c-4.813,0-7.772,1.973-9.408,3.627
		c-2.016,2.039-3.171,4.747-3.171,7.429c0,3.367,1.408,5.952,3.767,6.913c0.159,0.064,0.318,0.098,0.474,0.098
		c0.497,0,0.892-0.325,1.028-0.848c0.08-0.3,0.265-1.038,0.344-1.36c0.172-0.633,0.034-0.938-0.341-1.379
		c-0.682-0.807-1-1.762-1-3.003c0-3.69,2.748-7.611,7.839-7.611c4.041,0,6.55,2.296,6.55,5.993c0,2.333-0.502,4.493-1.415,6.083
		c-0.635,1.104-1.749,2.422-3.461,2.422c-0.74,0-1.406-0.305-1.825-0.835c-0.396-0.5-0.527-1.148-0.368-1.823
		c0.18-0.762,0.426-1.557,0.663-2.326c0.434-1.404,0.843-2.73,0.843-3.789c0-1.81-1.113-3.026-2.768-3.026
		c-2.104,0-3.753,2.137-3.753,4.866c0,1.338,0.355,2.339,0.517,2.723c-0.265,1.123-1.841,7.801-2.139,9.06
		c-0.173,0.735-1.214,6.54,0.509,7.004c1.936,0.519,3.666-5.135,3.842-5.773c0.143-0.521,0.643-2.484,0.948-3.692
		c0.935,0.899,2.439,1.508,3.904,1.508c2.76,0,5.242-1.242,6.989-3.497c1.694-2.187,2.627-5.235,2.627-8.583
		C29.888,10.437,28.764,7.856,26.805,5.975z"/>
</g>
</svg>
