<?xml version="1.0" encoding="utf-8"?>
<!-- Generator: Adobe Illustrator 16.0.0, SVG Export Plug-In . SVG Version: 6.00 Build 0)  -->
<!DOCTYPE svg PUBLIC "-//W3C//DTD SVG 1.1//EN" "http://www.w3.org/Graphics/SVG/1.1/DTD/svg11.dtd">
<svg version="1.1" id="Capa_1" xmlns="http://www.w3.org/2000/svg" xmlns:xlink="http://www.w3.org/1999/xlink" x="0px" y="0px"
	 width="36px" height="36px" viewBox="0 0 36 36" enable-background="new 0 0 36 36" xml:space="preserve">
<g>
	<g>
		<path fill="#36373B" d="M33.865,8.163c-1.168,0.518-2.421,0.869-3.737,1.025c1.344-0.805,2.373-2.082,2.86-3.599
			c-1.262,0.745-2.652,1.287-4.136,1.58c-1.188-1.267-2.877-2.056-4.751-2.056c-3.595,0-6.509,2.915-6.509,6.507
			c0,0.51,0.058,1.007,0.169,1.483c-5.409-0.271-10.205-2.863-13.416-6.801c-0.561,0.959-0.88,2.078-0.88,3.271
			c0,2.259,1.15,4.251,2.895,5.417c-1.067-0.036-2.07-0.329-2.948-0.817v0.082c0,3.153,2.244,5.784,5.221,6.382
			c-0.545,0.147-1.12,0.229-1.715,0.229c-0.42,0-0.827-0.041-1.226-0.12c0.829,2.587,3.232,4.469,6.08,4.521
			c-2.227,1.743-5.035,2.781-8.083,2.781c-0.526,0-1.043-0.032-1.553-0.089c2.881,1.85,6.301,2.928,9.977,2.928
			c11.974,0,18.519-9.917,18.519-18.519l-0.021-0.843C31.889,10.613,32.994,9.467,33.865,8.163z"/>
	</g>
</g>
</svg>
